<?xml version="1.0" encoding="utf-8"?><!DOCTYPE svg PUBLIC "-//W3C//DTD SVG 1.1//EN" "http://www.w3.org/Graphics/SVG/1.1/DTD/svg11.dtd"><svg viewBox="0 0 492 492" xmlns="http://www.w3.org/2000/svg" xmlns:xlink="http://www.w3.org/1999/xlink"><style>:root>svg{display:none}:root>svg:target{display:block}</style><svg class="abi abi-calendar4-event" viewBox="0 0 16 16" id="calendar" xmlns="http://www.w3.org/2000/svg"><path fill-rule="evenodd" d="M3.5 0a.5.5 0 01.5.5V1h8V.5a.5.5 0 011 0V1h1a2 2 0 012 2v11a2 2 0 01-2 2H2a2 2 0 01-2-2V3a2 2 0 012-2h1V.5a.5.5 0 01.5-.5zM2 2a1 1 0 00-1 1v1h14V3a1 1 0 00-1-1H2zm13 3H1v9a1 1 0 001 1h12a1 1 0 001-1V5z"/><rect width="2" height="2" x="11" y="7" rx=".5"/></svg><svg viewBox="0 0 492 492" id="dollar" xmlns="http://www.w3.org/2000/svg"><path d="M370.5 254c-14.667-11.333-36.667-20.667-66-28l-23-5v-97c.667.667 1.333 1 2 1s1 .333 1 1c19.334 9.333 29.668 25.333 31 48h77c-1.333-40-16.333-70.667-45-92-18.667-14-40.667-23.333-66-28V0h-71v52c-33.333 4-59.667 14.667-79 32-25.333 22.667-38 51.334-38 86 0 37.333 13 65 39 83 14 10 40 19.333 78 28v104c-14-4-24.667-10.333-32-19-8-9.333-13-22-15-38h-76c0 39.333 14.333 70.333 43 93 20.667 16 47.333 26.333 80 31v40h71v-39c34.667-4.667 62.333-15.667 83-33 26.667-23.333 40-52.667 40-88 0-34-11.333-60-34-78zm-160-50c-11.333-3.333-19.333-6.333-24-9-12.667-6.667-19-17-19-31 0-15.333 6.333-27 19-35 6.667-4 14.667-7.333 24-10v85zm83 179c-3.333 1.333-7.333 2.333-12 3v-89c12.667 4 22.333 8 29 12 11.333 7.333 17 17.333 17 30 0 21.333-11.333 36-34 44z"/></svg><svg viewBox="0 0 438.533 438.533" id="file-text" xmlns="http://www.w3.org/2000/svg"><path d="M396.283 130.188c-3.806-9.135-8.371-16.365-13.703-21.695l-89.078-89.081c-5.332-5.325-12.56-9.895-21.697-13.704C262.672 1.903 254.297 0 246.687 0H63.953C56.341 0 49.869 2.663 44.54 7.993c-5.33 5.327-7.994 11.799-7.994 19.414v383.719c0 7.617 2.664 14.089 7.994 19.417 5.33 5.325 11.801 7.991 19.414 7.991h310.633c7.611 0 14.079-2.666 19.407-7.991 5.328-5.332 7.994-11.8 7.994-19.417V155.313c.003-7.614-1.9-15.99-5.705-25.125zM255.816 38.826c5.517 1.903 9.418 3.999 11.704 6.28l89.366 89.366c2.279 2.286 4.374 6.186 6.276 11.706H255.816V38.826zm109.633 363.165H73.089V36.545h146.178v118.771c0 7.614 2.662 14.084 7.992 19.414 5.332 5.327 11.8 7.994 19.417 7.994h118.773v219.267z"/><path d="M319.77 292.355h-201c-2.663 0-4.853.855-6.567 2.566-1.709 1.711-2.568 3.901-2.568 6.563v18.274c0 2.67.856 4.859 2.568 6.57 1.715 1.711 3.905 2.567 6.567 2.567h201c2.663 0 4.854-.856 6.564-2.567s2.566-3.9 2.566-6.57v-18.274c0-2.662-.855-4.853-2.566-6.563-1.715-1.707-3.905-2.566-6.564-2.566zM112.202 221.831c-1.709 1.712-2.568 3.901-2.568 6.571v18.271c0 2.666.856 4.856 2.568 6.567 1.715 1.711 3.905 2.566 6.567 2.566h201c2.663 0 4.854-.855 6.564-2.566s2.566-3.901 2.566-6.567v-18.271c0-2.663-.855-4.854-2.566-6.571-1.715-1.709-3.905-2.564-6.564-2.564h-201c-2.662 0-4.852.855-6.567 2.564z"/></svg><svg stroke-width="2" stroke-linecap="round" stroke-linejoin="round" viewBox="0 0 24 24" id="grid" xmlns="http://www.w3.org/2000/svg"><path d="M3 3h7v7H3zM14 3h7v7h-7zM14 14h7v7h-7zM3 14h7v7H3z"/></svg><svg viewBox="0 0 22 22" id="home" xmlns="http://www.w3.org/2000/svg"><path d="M21.262 9.628c-3.39-2.854-9.546-8.171-9.607-8.225L11 .84l-.652.563c-.062.053-6.221 5.368-9.66 8.248A2.042 2.042 0 000 11.16a2 2 0 002 2h1v6a2 2 0 002 2h12a2 2 0 002-2v-6h1a2 2 0 002-2c0-.598-.275-1.161-.738-1.532zM13 19.16H9v-5h4v5zm4-8l.002 8H14v-6H8v6H5v-8H1.999C4.764 8.848 9.314 4.933 11 3.48c1.686 1.453 6.234 5.367 9 7.681l-3-.001z"/></svg><svg viewBox="0 0 124 22" id="logo" xmlns="http://www.w3.org/2000/svg"><path d="M.82 2.576v-.84h5.152l8.064 17.136L13.112 21h-3.64L.82 2.576zm15.82 10.332h-.112l-1.876 4.536-2.408-5.152L16.64 1.736h5.32V21h-5.32v-8.092zM.82 5.348l5.152 10.976V21H.82V5.348zM32.677 12.152c0-.485-.018-.83-.056-1.036a.595.595 0 00-.336-.448c-.168-.093-.485-.159-.952-.196-.28-.019-.886-.028-1.82-.028-.896 0-1.726.037-2.492.112l-1.484.084V7c1.755-.336 3.65-.504 5.684-.504 1.568 0 2.791.112 3.668.336.896.224 1.568.579 2.016 1.064.392.448.644 1.017.756 1.708.131.69.196 1.652.196 2.884V21h-5.18v-8.848zm-4.144 9.044c-1.288 0-2.24-.355-2.856-1.064-.616-.728-.924-1.82-.924-3.276 0-.896.066-1.615.196-2.156.131-.56.355-.999.672-1.316.318-.336.756-.57 1.316-.7.56-.15 1.298-.224 2.212-.224l2.352.056v2.492h-.28c-.429 0-.709.01-.84.028-.373.019-.569.196-.588.532a5.402 5.402 0 00-.028.7c0 .28.01.495.028.644.038.15.094.27.168.364.094.13.234.205.42.224.262.037.542.056.84.056h.28v2.856c-.41.317-.849.523-1.316.616-.448.112-.998.168-1.652.168zM39.751 6.72h5.656L55.039 21h-5.656L39.75 6.72zm8.596 2.24l1.176-2.24h5.32l-3.836 6.188-2.66-3.948zm-4.76 5.572l2.66 3.948L44.903 21h-5.32l4.004-6.468zm37.658-7c.392-.373.85-.635 1.372-.784.541-.168 1.204-.252 1.988-.252v4.676c-.84 0-1.53.056-2.072.168-.523.112-.952.308-1.288.588V7.532zm-6.356-.812h5.18V21h-5.18V6.72zm19.738 7.168c0-.952-.01-1.587-.028-1.904-.019-.448-.075-.784-.168-1.008-.094-.243-.243-.392-.448-.448-.224-.056-.532-.084-.924-.084h-.392V6.496h.392c1.624 0 2.893.13 3.808.392.914.243 1.596.653 2.044 1.232.41.523.672 1.223.784 2.1.13.859.196 2.081.196 3.668 0 1.475-.047 2.623-.14 3.444-.075.803-.27 1.465-.588 1.988-.355.579-.887 1.017-1.596 1.316-.71.28-1.69.457-2.94.532v-7.28zm-1.568 7.336c-1.624 0-2.894-.121-3.808-.364-.915-.243-1.596-.653-2.044-1.232-.41-.523-.682-1.213-.812-2.072-.112-.859-.168-2.081-.168-3.668 0-1.456.046-2.595.14-3.416.093-.821.298-1.503.616-2.044.336-.597.858-1.036 1.568-1.316.71-.299 1.69-.485 2.94-.56v7.336c0 .952.01 1.577.028 1.876.018.448.074.784.168 1.008a.672.672 0 00.476.42c.186.056.485.084.896.084h.392v3.948h-.392zM120.17 4.508c-.056.224-.084.541-.084.952v1.26h3.416v3.948h-21.924V6.72h2.632v-.308c0-1.587.112-2.79.336-3.612.224-.821.635-1.419 1.232-1.792.56-.355 1.335-.579 2.324-.672.99-.093 2.558-.14 4.704-.14V3.78c-.97 0-1.605.01-1.904.028-.448.019-.793.084-1.036.196-.224.112-.354.28-.392.504-.056.224-.084.541-.084.952v1.26h5.516v-.308c0-1.587.112-2.79.336-3.612.224-.821.635-1.419 1.232-1.792.56-.355 1.335-.579 2.324-.672.99-.093 2.558-.14 4.704-.14V3.78c-.97 0-1.605.01-1.904.028-.448.019-.793.084-1.036.196-.224.112-.354.28-.392.504zm-15.96 7.28h5.18V21h-5.18v-9.212zm10.696 0h5.18V21h-5.18v-9.212zM57.066 1.736h5.6V21h-5.6V1.736zm6.776 8.988h.672c.597 0 1.036-.019 1.316-.056.299-.056.532-.168.7-.336.168-.15.27-.364.308-.644.056-.299.084-.737.084-1.316 0-.579-.028-1.008-.084-1.288-.037-.299-.14-.532-.308-.7-.168-.15-.401-.243-.7-.28-.299-.056-.737-.084-1.316-.084h-.672V1.736h2.324c1.381 0 2.501.14 3.36.42.877.261 1.54.672 1.988 1.232.43.523.719 1.185.868 1.988.15.784.224 1.783.224 2.996 0 1.157-.075 2.119-.224 2.884-.13.765-.401 1.41-.812 1.932-.467.597-1.139 1.055-2.016 1.372-.859.299-1.988.448-3.388.448h-2.324v-4.284z"/></svg><svg viewBox="0 0 64 64" id="map-pin" xmlns="http://www.w3.org/2000/svg"><path d="M42.138 23.162c0-5.566-4.548-10.094-10.138-10.094s-10.138 4.528-10.138 10.094S26.41 33.256 32 33.256s10.138-4.528 10.138-10.094z"/><path d="M31.995 63.996l4.109-5.375c4.289-5.678 18.282-25.024 18.282-35.601C54.387 9.253 45.391.004 32 .004S9.613 9.253 9.613 23.021c0 11.39 16.432 33.166 18.301 35.605l4.081 5.37zM17.862 23.162c0-7.771 6.342-14.094 14.138-14.094s14.138 6.323 14.138 14.094S39.796 37.256 32 37.256s-14.138-6.322-14.138-14.094z"/></svg><svg viewBox="0 0 18 18" id="tel" xmlns="http://www.w3.org/2000/svg"><path d="M10.91 4.058a3.832 3.832 0 013.026 3.02l-3.026-3.02zm0-3.058a6.9 6.9 0 014.11 1.97A6.875 6.875 0 0117 7.07L10.91 1zm5.324 12.171v2.294a1.525 1.525 0 01-1.041 1.454 1.534 1.534 0 01-.629.075 15.177 15.177 0 01-6.61-2.347 14.923 14.923 0 01-4.596-4.587A15.111 15.111 0 011.006 3.43a1.526 1.526 0 01.907-1.536c.195-.086.405-.13.618-.13h2.297A1.534 1.534 0 016.36 3.08a9.8 9.8 0 00.537 2.148 1.526 1.526 0 01-.345 1.613l-.973.97a12.244 12.244 0 004.596 4.588l.973-.97a1.532 1.532 0 011.616-.345 9.847 9.847 0 002.152.535 1.533 1.533 0 011.318 1.552z"/></svg></svg>