<?xml version="1.0" encoding="utf-8"?><!DOCTYPE svg PUBLIC "-//W3C//DTD SVG 1.1//EN" "http://www.w3.org/Graphics/SVG/1.1/DTD/svg11.dtd"><svg viewBox="0 0 612 612" xmlns="http://www.w3.org/2000/svg" xmlns:xlink="http://www.w3.org/1999/xlink"><style>:root>svg{display:none}:root>svg:target{display:block}</style><svg class="abi abi-calendar4-event" viewBox="0 0 16 16" id="calendar" xmlns="http://www.w3.org/2000/svg"><path fill-rule="evenodd" d="M3.5 0a.5.5 0 01.5.5V1h8V.5a.5.5 0 011 0V1h1a2 2 0 012 2v11a2 2 0 01-2 2H2a2 2 0 01-2-2V3a2 2 0 012-2h1V.5a.5.5 0 01.5-.5zM2 2a1 1 0 00-1 1v1h14V3a1 1 0 00-1-1H2zm13 3H1v9a1 1 0 001 1h12a1 1 0 001-1V5z"/><rect width="2" height="2" x="11" y="7" rx=".5"/></svg><svg viewBox="0 0 492 492" id="dollar" xmlns="http://www.w3.org/2000/svg"><path d="M370.5 254c-14.667-11.333-36.667-20.667-66-28l-23-5v-97c.667.667 1.333 1 2 1s1 .333 1 1c19.334 9.333 29.668 25.333 31 48h77c-1.333-40-16.333-70.667-45-92-18.667-14-40.667-23.333-66-28V0h-71v52c-33.333 4-59.667 14.667-79 32-25.333 22.667-38 51.334-38 86 0 37.333 13 65 39 83 14 10 40 19.333 78 28v104c-14-4-24.667-10.333-32-19-8-9.333-13-22-15-38h-76c0 39.333 14.333 70.333 43 93 20.667 16 47.333 26.333 80 31v40h71v-39c34.667-4.667 62.333-15.667 83-33 26.667-23.333 40-52.667 40-88 0-34-11.333-60-34-78zm-160-50c-11.333-3.333-19.333-6.333-24-9-12.667-6.667-19-17-19-31 0-15.333 6.333-27 19-35 6.667-4 14.667-7.333 24-10v85zm83 179c-3.333 1.333-7.333 2.333-12 3v-89c12.667 4 22.333 8 29 12 11.333 7.333 17 17.333 17 30 0 21.333-11.333 36-34 44z"/></svg><svg viewBox="0 0 516.375 516.375" id="envelope" xmlns="http://www.w3.org/2000/svg"><path d="M439.875 160.65V95.625c0-21.038-17.213-38.25-38.25-38.25h-78.412L258.188 0l-65.025 57.375H114.75c-21.038 0-38.25 17.212-38.25 38.25v65.025l-57.375 49.725v267.75c0 21.037 17.212 38.25 38.25 38.25H459c21.037 0 38.25-17.213 38.25-38.25v-267.75l-57.375-49.725zm0 24.863l28.688 24.862-28.688 24.862v-49.724zM258.188 24.862l36.338 32.513h-74.588l38.25-32.513zM95.625 95.625c0-11.475 7.65-19.125 19.125-19.125h286.875c9.562 0 19.125 9.562 19.125 19.125v154.912L294.525 363.375h1.912-65.025 32.512-43.987L95.625 252.45V95.625zM76.5 185.513v51.637l-28.688-26.775L76.5 185.513zm-32.513 306c-3.825-3.825-5.737-7.65-5.737-13.388V229.5l153 133.875L43.987 491.513zm22.951 5.737L200.812 382.5h114.75l133.875 114.75H66.938zm411.187-143.438v124.312c0 5.737-1.912 9.562-5.737 13.388L325.125 363.375l153-133.875v124.312z"/></svg><svg viewBox="0 0 8 14" id="fb" xmlns="http://www.w3.org/2000/svg"><path fill-rule="evenodd" clip-rule="evenodd" d="M.007 7.009h2.398v6.214a.729.729 0 00.224.558.771.771 0 00.575.218h1.598c-.012 0 0-6.99 0-6.99h2.397c-.056 0 .84-2.33.8-2.33H4.802V3.125a.658.658 0 01.195-.587.7.7 0 01.604-.19c.133 0 1.646.005 1.598 0 .134 0 .122-.011.8 0V.5c0-.644-.666-.482-.8-.482H4.802c.339 0-1.119.174-1.598.777-.456.403-.741.957-.8 1.553v2.33H.008c-.018-.018.006 2.33 0 2.33z"/></svg><svg viewBox="0 0 438.533 438.533" id="file-text" xmlns="http://www.w3.org/2000/svg"><path d="M396.283 130.188c-3.806-9.135-8.371-16.365-13.703-21.695l-89.078-89.081c-5.332-5.325-12.56-9.895-21.697-13.704C262.672 1.903 254.297 0 246.687 0H63.953C56.341 0 49.869 2.663 44.54 7.993c-5.33 5.327-7.994 11.799-7.994 19.414v383.719c0 7.617 2.664 14.089 7.994 19.417 5.33 5.325 11.801 7.991 19.414 7.991h310.633c7.611 0 14.079-2.666 19.407-7.991 5.328-5.332 7.994-11.8 7.994-19.417V155.313c.003-7.614-1.9-15.99-5.705-25.125zM255.816 38.826c5.517 1.903 9.418 3.999 11.704 6.28l89.366 89.366c2.279 2.286 4.374 6.186 6.276 11.706H255.816V38.826zm109.633 363.165H73.089V36.545h146.178v118.771c0 7.614 2.662 14.084 7.992 19.414 5.332 5.327 11.8 7.994 19.417 7.994h118.773v219.267z"/><path d="M319.77 292.355h-201c-2.663 0-4.853.855-6.567 2.566-1.709 1.711-2.568 3.901-2.568 6.563v18.274c0 2.67.856 4.859 2.568 6.57 1.715 1.711 3.905 2.567 6.567 2.567h201c2.663 0 4.854-.856 6.564-2.567s2.566-3.9 2.566-6.57v-18.274c0-2.662-.855-4.853-2.566-6.563-1.715-1.707-3.905-2.566-6.564-2.566zM112.202 221.831c-1.709 1.712-2.568 3.901-2.568 6.571v18.271c0 2.666.856 4.856 2.568 6.567 1.715 1.711 3.905 2.566 6.567 2.566h201c2.663 0 4.854-.855 6.564-2.566s2.566-3.901 2.566-6.567v-18.271c0-2.663-.855-4.854-2.566-6.571-1.715-1.709-3.905-2.564-6.564-2.564h-201c-2.662 0-4.852.855-6.567 2.564z"/></svg><svg stroke-width="2" stroke-linecap="round" stroke-linejoin="round" viewBox="0 0 24 24" id="grid" xmlns="http://www.w3.org/2000/svg"><path d="M3 3h7v7H3zM14 3h7v7h-7zM14 14h7v7h-7zM3 14h7v7H3z"/></svg><svg viewBox="0 0 22 22" id="home" xmlns="http://www.w3.org/2000/svg"><path d="M21.262 9.628c-3.39-2.854-9.546-8.171-9.607-8.225L11 .84l-.652.563c-.062.053-6.221 5.368-9.66 8.248A2.042 2.042 0 000 11.16a2 2 0 002 2h1v6a2 2 0 002 2h12a2 2 0 002-2v-6h1a2 2 0 002-2c0-.598-.275-1.161-.738-1.532zM13 19.16H9v-5h4v5zm4-8l.002 8H14v-6H8v6H5v-8H1.999C4.764 8.848 9.314 4.933 11 3.48c1.686 1.453 6.234 5.367 9 7.681l-3-.001z"/></svg><svg viewBox="0 0 22 22" id="insta" xmlns="http://www.w3.org/2000/svg"><path fill-rule="evenodd" clip-rule="evenodd" d="M13.09 2H4.91A5.223 5.223 0 000 6.91v8.18A5.223 5.223 0 004.91 20h8.18A5.223 5.223 0 0018 15.09V6.91A5.223 5.223 0 0013.09 2zm3.274 13.09a3.436 3.436 0 01-3.273 3.274H4.909a3.436 3.436 0 01-3.273-3.273V6.909A3.436 3.436 0 014.91 3.636h8.182a3.436 3.436 0 013.273 3.273v8.182zM9 6.09a4.909 4.909 0 100 9.819 4.909 4.909 0 000-9.818zm.066 8.175a3.268 3.268 0 110-6.535 3.269 3.269 0 010 6.537v-.002zm4.444-9a1.227 1.227 0 10.871.36 1.24 1.24 0 00-.872-.352v-.008z"/></svg><svg viewBox="0 0 124 22" id="logo" xmlns="http://www.w3.org/2000/svg"><path d="M.82 2.576v-.84h5.152l8.064 17.136L13.112 21h-3.64L.82 2.576zm15.82 10.332h-.112l-1.876 4.536-2.408-5.152L16.64 1.736h5.32V21h-5.32v-8.092zM.82 5.348l5.152 10.976V21H.82V5.348zM32.677 12.152c0-.485-.018-.83-.056-1.036a.595.595 0 00-.336-.448c-.168-.093-.485-.159-.952-.196-.28-.019-.886-.028-1.82-.028-.896 0-1.726.037-2.492.112l-1.484.084V7c1.755-.336 3.65-.504 5.684-.504 1.568 0 2.791.112 3.668.336.896.224 1.568.579 2.016 1.064.392.448.644 1.017.756 1.708.131.69.196 1.652.196 2.884V21h-5.18v-8.848zm-4.144 9.044c-1.288 0-2.24-.355-2.856-1.064-.616-.728-.924-1.82-.924-3.276 0-.896.066-1.615.196-2.156.131-.56.355-.999.672-1.316.318-.336.756-.57 1.316-.7.56-.15 1.298-.224 2.212-.224l2.352.056v2.492h-.28c-.429 0-.709.01-.84.028-.373.019-.569.196-.588.532a5.402 5.402 0 00-.028.7c0 .28.01.495.028.644.038.15.094.27.168.364.094.13.234.205.42.224.262.037.542.056.84.056h.28v2.856c-.41.317-.849.523-1.316.616-.448.112-.998.168-1.652.168zM39.751 6.72h5.656L55.039 21h-5.656L39.75 6.72zm8.596 2.24l1.176-2.24h5.32l-3.836 6.188-2.66-3.948zm-4.76 5.572l2.66 3.948L44.903 21h-5.32l4.004-6.468zm37.658-7c.392-.373.85-.635 1.372-.784.541-.168 1.204-.252 1.988-.252v4.676c-.84 0-1.53.056-2.072.168-.523.112-.952.308-1.288.588V7.532zm-6.356-.812h5.18V21h-5.18V6.72zm19.738 7.168c0-.952-.01-1.587-.028-1.904-.019-.448-.075-.784-.168-1.008-.094-.243-.243-.392-.448-.448-.224-.056-.532-.084-.924-.084h-.392V6.496h.392c1.624 0 2.893.13 3.808.392.914.243 1.596.653 2.044 1.232.41.523.672 1.223.784 2.1.13.859.196 2.081.196 3.668 0 1.475-.047 2.623-.14 3.444-.075.803-.27 1.465-.588 1.988-.355.579-.887 1.017-1.596 1.316-.71.28-1.69.457-2.94.532v-7.28zm-1.568 7.336c-1.624 0-2.894-.121-3.808-.364-.915-.243-1.596-.653-2.044-1.232-.41-.523-.682-1.213-.812-2.072-.112-.859-.168-2.081-.168-3.668 0-1.456.046-2.595.14-3.416.093-.821.298-1.503.616-2.044.336-.597.858-1.036 1.568-1.316.71-.299 1.69-.485 2.94-.56v7.336c0 .952.01 1.577.028 1.876.018.448.074.784.168 1.008a.672.672 0 00.476.42c.186.056.485.084.896.084h.392v3.948h-.392zM120.17 4.508c-.056.224-.084.541-.084.952v1.26h3.416v3.948h-21.924V6.72h2.632v-.308c0-1.587.112-2.79.336-3.612.224-.821.635-1.419 1.232-1.792.56-.355 1.335-.579 2.324-.672.99-.093 2.558-.14 4.704-.14V3.78c-.97 0-1.605.01-1.904.028-.448.019-.793.084-1.036.196-.224.112-.354.28-.392.504-.056.224-.084.541-.084.952v1.26h5.516v-.308c0-1.587.112-2.79.336-3.612.224-.821.635-1.419 1.232-1.792.56-.355 1.335-.579 2.324-.672.99-.093 2.558-.14 4.704-.14V3.78c-.97 0-1.605.01-1.904.028-.448.019-.793.084-1.036.196-.224.112-.354.28-.392.504zm-15.96 7.28h5.18V21h-5.18v-9.212zm10.696 0h5.18V21h-5.18v-9.212zM57.066 1.736h5.6V21h-5.6V1.736zm6.776 8.988h.672c.597 0 1.036-.019 1.316-.056.299-.056.532-.168.7-.336.168-.15.27-.364.308-.644.056-.299.084-.737.084-1.316 0-.579-.028-1.008-.084-1.288-.037-.299-.14-.532-.308-.7-.168-.15-.401-.243-.7-.28-.299-.056-.737-.084-1.316-.084h-.672V1.736h2.324c1.381 0 2.501.14 3.36.42.877.261 1.54.672 1.988 1.232.43.523.719 1.185.868 1.988.15.784.224 1.783.224 2.996 0 1.157-.075 2.119-.224 2.884-.13.765-.401 1.41-.812 1.932-.467.597-1.139 1.055-2.016 1.372-.859.299-1.988.448-3.388.448h-2.324v-4.284z"/></svg><svg viewBox="0 0 64 64" id="map-pin" xmlns="http://www.w3.org/2000/svg"><path d="M42.138 23.162c0-5.566-4.548-10.094-10.138-10.094s-10.138 4.528-10.138 10.094S26.41 33.256 32 33.256s10.138-4.528 10.138-10.094z"/><path d="M31.995 63.996l4.109-5.375c4.289-5.678 18.282-25.024 18.282-35.601C54.387 9.253 45.391.004 32 .004S9.613 9.253 9.613 23.021c0 11.39 16.432 33.166 18.301 35.605l4.081 5.37zM17.862 23.162c0-7.771 6.342-14.094 14.138-14.094s14.138 6.323 14.138 14.094S39.796 37.256 32 37.256s-14.138-6.322-14.138-14.094z"/></svg><svg aria-hidden="true" viewBox="0 0 14 14" id="master-card" xmlns="http://www.w3.org/2000/svg"><path d="M4.495 7.193h-.068q-.245 0-.245.166 0 .115.104.115.089 0 .146-.078.058-.078.063-.203zm2.057-.188h.323V6.99q.005-.021.003-.034-.003-.013-.005-.037-.003-.023-.01-.041-.008-.019-.024-.034-.015-.016-.039-.026-.023-.01-.06-.01-.146 0-.187.197zm2.813.188h-.063q-.25 0-.25.166 0 .115.104.115.089 0 .146-.078.057-.078.063-.203zm1.661-.136q0-.213-.156-.213-.1 0-.162.104t-.062.266q0 .218.146.218.104 0 .169-.104.065-.104.065-.27zM3.5 6.323h.453l-.229 1.364h-.292L3.6 6.641l-.37 1.046h-.203l-.02-1.041-.178 1.042h-.276l.23-1.365h.421l.01.849zm1.318.557q0 .031-.021.219-.083.526-.089.588h-.244l.005-.114q-.105.135-.302.135-.12 0-.196-.083-.075-.083-.075-.219 0-.203.135-.315.136-.112.38-.112.073 0 .12.005 0-.015.003-.028l.005-.024.003-.015q0-.105-.187-.105-.151 0-.308.053 0-.021.037-.25.198-.058.349-.058.385 0 .385.323zm.812-.302l-.041.255q-.115-.015-.214-.015-.14 0-.14.088 0 .042.023.063.023.02.112.057.208.099.208.313 0 .375-.453.37-.177 0-.302-.032 0-.01.036-.255.151.042.266.042.167 0 .167-.1 0-.036-.024-.06-.023-.023-.112-.064-.224-.105-.224-.308 0-.375.438-.375.156 0 .26.021zm.459 0h.145l-.036.271h-.151q-.01.088-.034.21l-.037.201q-.013.079-.013.094 0 .083.1.083.041 0 .083-.01l-.042.245q-.11.036-.208.036-.224 0-.235-.244 0-.063.042-.292.016-.104.13-.76h.287zm1.057.38q0 .12-.037.271h-.578q-.015.115.052.172.068.057.198.057.156 0 .302-.073l-.047.282q-.156.041-.296.041-.495 0-.495-.494 0-.287.143-.472t.362-.185q.182 0 .289.11.107.11.107.291zm.724-.385q-.068.12-.115.323-.114-.01-.161.125t-.13.667h-.292l.015-.073q.115-.677.152-1.037h.265l-.015.172q.072-.11.132-.154.06-.044.149-.023zm.974-.214l-.047.297q-.146-.073-.26-.073-.162 0-.266.144-.104.143-.104.367 0 .156.07.245.07.088.2.088.11 0 .25-.068l-.052.308q-.145.041-.26.041-.234 0-.372-.159-.138-.158-.138-.43 0-.364.184-.596.185-.231.477-.231.135 0 .318.067zm.844.521q0 .094-.021.219-.068.411-.089.588h-.24l.006-.114q-.105.135-.308.135-.12 0-.192-.083-.073-.083-.073-.219 0-.203.133-.315.132-.112.377-.112.078 0 .12.005.01-.036.01-.068 0-.104-.187-.104-.151 0-.307.052 0-.02.041-.25.198-.057.35-.057.38 0 .38.323zm.734-.307q-.073.125-.11.323-.12-.01-.164.12-.044.13-.132.671h-.292l.016-.072q.099-.542.15-1.037h.271q0 .057-.02.172.078-.11.138-.154.06-.044.143-.023zm.734-.25h.292l-.224 1.364h-.276l.016-.099q-.12.12-.271.12-.162 0-.258-.125-.097-.125-.097-.333 0-.276.144-.48.143-.202.336-.202.161 0 .276.15zm.578.677q0-.77-.377-1.422-.378-.65-1.031-1.031-.654-.38-1.425-.38-.943 0-1.708.573.661.604.89 1.479h-.26Q7.593 5.437 7 4.9q-.594.537-.823 1.318h-.26q.229-.875.89-1.48-.765-.572-1.708-.572-.77 0-1.425.38-.653.38-1.03 1.031Q2.265 6.23 2.265 7q0 .77.377 1.422.378.65 1.031 1.031.654.38 1.425.38.943 0 1.708-.573-.625-.578-.86-1.375h.261q.24.72.792 1.214.552-.495.792-1.214h.26q-.234.797-.86 1.375.766.573 1.709.573.77 0 1.425-.38.653-.38 1.03-1.031.378-.651.378-1.422zM13 3.667v6.666q0 .271-.198.47-.198.197-.469.197H1.667q-.271 0-.47-.198Q1 10.604 1 10.333V3.667q0-.271.198-.47Q1.396 3 1.667 3h10.666q.271 0 .47.198.197.198.197.469z"/></svg><svg viewBox="0 0 32 32" id="ok" xmlns="http://www.w3.org/2000/svg"><path d="M15 8.328a2.353 2.353 0 012.351 2.35 2.353 2.353 0 01-2.35 2.35 2.354 2.354 0 01-2.352-2.35A2.354 2.354 0 0115 8.328zm0 8.027a5.682 5.682 0 005.678-5.677A5.683 5.683 0 0015 5a5.684 5.684 0 00-5.678 5.678A5.683 5.683 0 0015 16.355zm2.297 4.631c1.156-.263 2.27-.72 3.297-1.365a1.664 1.664 0 00-1.772-2.817 7.208 7.208 0 01-7.644 0 1.663 1.663 0 00-1.772 2.817 10.65 10.65 0 003.296 1.365l-3.174 3.175a1.664 1.664 0 002.354 2.352l3.117-3.12 3.121 3.12a1.662 1.662 0 102.352-2.352l-3.175-3.175z"/></svg><svg viewBox="0 0 32 32" id="sber" xmlns="http://www.w3.org/2000/svg"><path d="M16 32C7.163 32 0 24.837 0 16S7.163 0 16 0s16 7.163 16 16-7.163 16-16 16zm6.681-24.632l-10.987 6.249-5.236-2.977-.54 1.073 5.776 3.325 11.932-6.812-.945-.858zM20.279 6l-8.585 4.908-3.806-2.172-.782.938 4.588 2.602 9.853-5.632L20.28 6zm4.184 3.111l-12.769 7.295-6.208-3.54-.297 1.18 6.505 3.701 13.47-7.697-.701-.939zm1.943 3.46l-.594-1.502-14.118 8.046L5 15.333v.724c0 1.465.293 2.915.864 4.265a10.568 10.568 0 002.348 3.486 11.341 11.341 0 003.482 2.307c1.368.59 2.799.885 4.293.885 1.476 0 2.906-.295 4.292-.885a10.85 10.85 0 003.509-2.307 11.142 11.142 0 002.348-3.486l.27-.724c.396-1.144.594-2.325.594-3.54 0-1.217-.198-2.378-.594-3.487z"/></svg><svg viewBox="0 0 18 18" id="tel" xmlns="http://www.w3.org/2000/svg"><path d="M10.91 4.058a3.832 3.832 0 013.026 3.02l-3.026-3.02zm0-3.058a6.9 6.9 0 014.11 1.97A6.875 6.875 0 0117 7.07L10.91 1zm5.324 12.171v2.294a1.525 1.525 0 01-1.041 1.454 1.534 1.534 0 01-.629.075 15.177 15.177 0 01-6.61-2.347 14.923 14.923 0 01-4.596-4.587A15.111 15.111 0 011.006 3.43a1.526 1.526 0 01.907-1.536c.195-.086.405-.13.618-.13h2.297A1.534 1.534 0 016.36 3.08a9.8 9.8 0 00.537 2.148 1.526 1.526 0 01-.345 1.613l-.973.97a12.244 12.244 0 004.596 4.588l.973-.97a1.532 1.532 0 011.616-.345 9.847 9.847 0 002.152.535 1.533 1.533 0 011.318 1.552z"/></svg><svg viewBox="0 0 18 18" id="telegram" xmlns="http://www.w3.org/2000/svg"><path d="M9 18c4.963 0 9-4.037 9-9s-4.037-9-9-9-9 4.037-9 9 4.037 9 9 9zM9 1.125c4.342 0 7.875 3.532 7.875 7.875 0 4.342-3.533 7.875-7.875 7.875-4.343 0-7.875-3.533-7.875-7.875 0-4.343 3.532-7.875 7.875-7.875z"/><path d="M5.922 10.616l1.176-.511-.33.33a.563.563 0 00-.165.398v2.201c0 .505.609.749.96.398l1.18-1.18 2.573 1.286a.563.563 0 00.805-.403l1.467-8.07a.563.563 0 00-.758-.625L3.291 8.172a.563.563 0 00-.097.999l2.2 1.404c.158.1.357.116.527.04zm6.38-4.76l-1.153 6.34-2.265-1.131a.561.561 0 00-.649.106l-.507.507v-.61l2.255-2.255c.438-.437-.055-1.159-.622-.914L5.75 9.467l-1.016-.648 7.569-2.963z"/></svg><svg viewBox="-74 0 100 100" id="visa" xmlns="http://www.w3.org/2000/svg"><path d="M-28.5 60.6l3.4-21.3h-5.5L-34 60.6zM-19 61c5.8 0 9.6-2.9 9.6-7.3 0-2.4-1.4-4.3-4.6-5.8-1.9-1-3.1-1.6-3.1-2.6 0-.9 1-1.8 3.2-1.8 1.8 0 3.1.4 4.1.8l.5.2.7-4.6c-1.1-.4-2.8-.9-4.9-.9-5.4 0-9.3 2.9-9.3 7 0 3.1 2.7 4.8 4.8 5.8s2.9 1.7 2.9 2.6c0 1.4-1.7 2.1-3.3 2.1-2.2 0-3.4-.3-5.2-1.1l-.7-.3-.8 4.8c1.3.6 3.7 1.1 6.1 1.1zM-4.2 60.6s.9-2.6 1.2-3.2h7c.2.7.7 3.2.7 3.2h5.1L5.3 39.3H1.1c-1.3 0-2.3.4-2.9 1.8L-10 60.6h5.8zM.7 47.1c0 .1.5-1.2.7-2l.4 1.8S2.9 52 3.1 53h-4.6C-1 51.8.7 47.1.7 47.1zM-47.3 60.6h5.8l8.7-21.3h-5.8L-44 53.9l-2.9-14.6H-58l6.3 4.7z"/><path d="M-73.6 22.7v54.7c0 1.4 1.1 2.5 2.5 2.5H23c1.4 0 2.5-1.1 2.5-2.5V22.7c0-1.4-1.1-2.5-2.5-2.5h-94.1c-1.4 0-2.5 1.1-2.5 2.5zm94.1 52.2h-89.1V25.2h89.1v49.7z"/></svg><svg viewBox="0 0 23 14" id="vk" xmlns="http://www.w3.org/2000/svg"><path d="M18.736 7.47c-.365-.456-.26-.66 0-1.067.005-.004 3.019-4.122 3.33-5.52h.001c.154-.509 0-.883-.746-.883h-2.469c-.628 0-.918.321-1.073.68 0 0-1.257 2.976-3.035 4.905-.574.557-.84.736-1.153.736-.154 0-.394-.18-.394-.688V.883c0-.61-.176-.883-.696-.883H8.619c-.394 0-.629.285-.629.55 0 .579.89.712.982 2.34v3.533c0 .774-.142.916-.458.916-.839 0-2.876-2.987-4.083-6.407C4.188.27 3.95.001 3.316.001H.846C.143 0 0 .32 0 .68c0 .635.84 3.79 3.903 7.958 2.041 2.846 4.916 4.387 7.532 4.387 1.572 0 1.764-.342 1.764-.931 0-2.719-.142-2.976.645-2.976.365 0 .994.179 2.461 1.551 1.678 1.628 1.954 2.356 2.893 2.356h2.468c.704 0 1.06-.342.855-1.018-.47-1.42-3.642-4.343-3.785-4.538z"/></svg><svg viewBox="0 0 16 16" id="wallet" xmlns="http://www.w3.org/2000/svg"><g clip-path="url(#rclip0_351_144)"><path d="M15.237 9.372h-.24V7.215c0-.341-.17-.644-.429-.827v-.294a.773.773 0 00-.772-.773h-.18l.685-1.003a.74.74 0 00-.194-1.026L9.465.128a.733.733 0 00-.553-.115.734.734 0 00-.473.31L4.433 6.202H3.318l.269-2.723a.08.08 0 01.05-.068c.347-.13.647-.375.846-.687a.08.08 0 01.076-.035l1.748.172a.228.228 0 00.045-.453l-1.748-.173a.534.534 0 00-.506.244c-.146.23-.366.41-.621.505a.533.533 0 00-.344.45L2.86 6.202h-.291l.425-4.307a.283.283 0 01.31-.253l3.533.349a.228.228 0 00.045-.454l-3.534-.349a.74.74 0 00-.807.662l-.343 3.471h-.584a.773.773 0 00-.773.773v.2c-.348.16-.59.513-.59.921v7.772C.25 15.545.704 16 1.262 16h12.721c.56 0 1.014-.455 1.014-1.013V12.83h.24c.282 0 .512-.23.512-.512V9.884a.513.513 0 00-.513-.512zm-1.441-3.595c.174 0 .316.142.316.317v.116a1.017 1.017 0 00-.128-.008h-.967l.29-.425h.489zM8.816.58a.28.28 0 01.392-.075l4.642 3.163a.283.283 0 01.074.393L12.465 6.2h-.35l.715-1.049a.533.533 0 00.025-.565 1.274 1.274 0 01-.152-.787.533.533 0 00-.231-.512l-2.406-1.64a.533.533 0 00-.561-.027 1.274 1.274 0 01-.788.146.54.54 0 00-.517.23L5.335 6.202h-.35L8.814.58zm.1 3.871c-.993 0-1.808.774-1.874 1.75H5.886l2.69-3.948a.081.081 0 01.078-.035c.367.052.747-.019 1.071-.198a.08.08 0 01.084.006l2.406 1.64a.08.08 0 01.035.075c-.048.367.026.747.208 1.07a.08.08 0 01-.004.084l-.89 1.307h-.774a1.881 1.881 0 00-1.874-1.75zm1.417 1.75H7.5a1.425 1.425 0 011.417-1.294c.742 0 1.352.57 1.417 1.295zm-9.036-.107c0-.175.142-.317.317-.317h.539l-.042.425h-.814v-.108zm-.59 1.121c0-.307.25-.557.556-.557h12.721c.308 0 .558.25.558.557v.633H.706v-.633zm13.835 7.772c0 .307-.25.557-.558.557H1.264a.558.558 0 01-.558-.557v-.633h1.23a.228.228 0 000-.456H.706V8.304h13.836v1.068h-2.168c-.683 0-1.275.398-1.556.974l-.002.006-.007.015a1.723 1.723 0 00-.164.734c0 .953.775 1.729 1.729 1.729h2.168v1.068H3.395a.228.228 0 000 .456h11.147v.633zm.752-2.67a.057.057 0 01-.057.057h-2.863a1.274 1.274 0 010-2.546h2.863c.031 0 .057.025.057.056v2.434z"/><path d="M12.427 10.176a.926.926 0 000 1.85.926.926 0 000-1.85zm0 1.394a.47.47 0 11.001-.94.47.47 0 010 .94z"/></g><defs><clipPath id="rclip0_351_144"><path d="M0 0h16v16H0z"/></clipPath></defs></svg><svg viewBox="0 0 612 612" id="youtube" xmlns="http://www.w3.org/2000/svg"><path d="M489.6 81.6H122.4C54.917 81.6 0 136.516 0 204v204c0 67.482 54.917 122.4 122.4 122.4h367.2c67.483 0 122.4-54.918 122.4-122.4V204c0-67.484-54.917-122.4-122.4-122.4zM584.8 408c0 52.496-42.704 95.199-95.2 95.199H122.4c-52.496 0-95.2-42.703-95.2-95.199V204c0-52.496 42.704-95.2 95.2-95.2h367.2c52.496 0 95.2 42.704 95.2 95.2v204zm-367.2 13.068l199.308-115.055L217.6 190.93v230.138zm27.2-183.027l117.708 67.973L244.8 373.959V238.041z"/></svg></svg>