<svg version="1.1" id="Layer_1" xmlns="http://www.w3.org/2000/svg" x="0" y="0" width="100" height="100" viewBox="-74 0 100 100" xml:space="preserve"><path d="M-28.5 60.6l3.4-21.3h-5.5L-34 60.6zm9.5.4c5.8 0 9.6-2.9 9.6-7.3 0-2.4-1.4-4.3-4.6-5.8-1.9-1-3.1-1.6-3.1-2.6 0-.9 1-1.8 3.2-1.8 1.8 0 3.1.4 4.1.8l.5.2.7-4.6c-1.1-.4-2.8-.9-4.9-.9-5.4 0-9.3 2.9-9.3 7 0 3.1 2.7 4.8 4.8 5.8s2.9 1.7 2.9 2.6c0 1.4-1.7 2.1-3.3 2.1-2.2 0-3.4-.3-5.2-1.1l-.7-.3-.8 4.8c1.3.6 3.7 1.1 6.1 1.1zm14.8-.4s.9-2.6 1.2-3.2h7c.2.7.7 3.2.7 3.2h5.1L5.3 39.3H1.1c-1.3 0-2.3.4-2.9 1.8L-10 60.6h5.8zM.7 47.1c0 .1.5-1.2.7-2l.4 1.8S2.9 52 3.1 53h-4.6C-1 51.8.7 47.1.7 47.1zm-48 13.5h5.8l8.7-21.3h-5.8L-44 53.9l-2.9-14.6H-58l6.3 4.7z"/><path d="M-73.6 22.7v54.7c0 1.4 1.1 2.5 2.5 2.5H23c1.4 0 2.5-1.1 2.5-2.5V22.7c0-1.4-1.1-2.5-2.5-2.5h-94.1c-1.4 0-2.5 1.1-2.5 2.5zm94.1 52.2h-89.1V25.2h89.1v49.7z"/></svg>